<?xml version="1.0" encoding="utf-8"?>
<!-- Generator: Adobe Illustrator 25.0.0, SVG Export Plug-In . SVG Version: 6.00 Build 0)  -->
<svg version="1.1" id="Layer_1" xmlns="http://www.w3.org/2000/svg" xmlns:xlink="http://www.w3.org/1999/xlink" x="0px" y="0px"
	 viewBox="0 0 300 58" style="enable-background:new 0 0 300 58;" xml:space="preserve">
<style type="text/css">
	.st0{fill:#005F8F;}
	.st1{fill:#009A01;}
</style>
<g>
	<path class="st0" d="M226.8,13h-6.2c-0.3,0-0.5,0.2-0.5,0.5V24c0,0.3-0.2,0.5-0.5,0.5h-2.1c-0.3,0-0.5,0.2-0.5,0.5v5.8
		c0,0.3,0.2,0.5,0.5,0.5h2.1c0.3,0,0.5,0.2,0.5,0.5V55c0,0.3,0.2,0.5,0.5,0.5h6.2c0.3,0,0.5-0.2,0.5-0.5V31.6c0-0.3,0.2-0.5,0.5-0.5
		h4.7c0.3,0,0.5-0.2,0.5-0.5v-5.8c0-0.3-0.2-0.5-0.5-0.5h-4.7c-0.3,0-0.5-0.2-0.5-0.5V13.5C227.2,13.2,227,13,226.8,13z"/>
	<path class="st0" d="M252.1,23.6c-1.4,0-2.7,0.3-3.7,0.8c-0.8,0.4-1.7,1.1-2.7,2c-0.3,0.3-0.8,0.1-0.8-0.3v-1.2
		c0-0.3-0.2-0.5-0.5-0.5h-6.2c-0.3,0-0.5,0.2-0.5,0.5V55c0,0.3,0.2,0.5,0.5,0.5h6.2c0.3,0,0.5-0.2,0.5-0.5V39.4c0-5.9,2-8.9,5.9-8.9
		c1.2,0,2.3,0.4,3.6,1.2c0.2,0.2,0.5,0.1,0.7-0.2l2.9-5.7c0.1-0.2,0-0.5-0.2-0.6C255.7,24.1,253.9,23.6,252.1,23.6z"/>
	<path class="st1" d="M101.4,48.7c-1.2,0.9-2.6,1.3-4.4,1.3c-2.3,0-4.2-0.7-5.6-2.2c-1.4-1.4-2.2-3.3-2.4-5.6c0-0.3,0.2-0.5,0.5-0.5
		h21.3c0.3,0,0.5-0.2,0.5-0.5l0-1.2c0-5.1-1.3-9.1-4-12c-2.7-2.9-6.3-4.4-10.8-4.4c-4.5,0-8.2,1.5-10.9,4.5c-2.7,3-4.1,7-4.1,11.9
		c0,5,1.4,8.9,4.2,11.9c2.8,3,6.5,4.5,11.2,4.5c1.6,0,3.1-0.2,4.5-0.5c1.4-0.3,2.7-0.9,3.9-1.6c1.2-0.7,2.3-1.7,3.4-2.8
		c1-1,1.9-2.3,2.7-3.7c0.1-0.2,0.1-0.5-0.2-0.6l-5.3-2.9c-0.2-0.1-0.5-0.1-0.6,0.2C103.7,46.4,102.5,47.9,101.4,48.7z M90.3,33.4
		c0.4-0.7,1-1.3,1.6-1.8c0.6-0.5,1.3-0.9,2.1-1.1c0.8-0.3,1.6-0.4,2.5-0.4c3.6,0,6,1.7,7.1,5.1c0.1,0.3-0.1,0.6-0.4,0.6H89.9
		c-0.3,0-0.5-0.3-0.4-0.6C89.7,34.5,90,33.9,90.3,33.4z"/>
	<path class="st0" d="M122.4,28.3c-3.3,3.2-4.9,7.1-4.9,11.7s1.6,8.5,4.9,11.6c3.2,3.1,7.3,4.7,12.1,4.7c2.8,0,5.7-0.7,8.5-2.1
		c0.2-0.1,0.3-0.2,0.3-0.4v-7.9c0-0.4-0.5-0.6-0.8-0.3c-1.4,1.6-2.6,2.6-3.7,3.3c-1.3,0.7-2.8,1.1-4.6,1.1c-2.7,0-4.9-0.9-6.7-2.8
		c-1.7-1.9-2.6-4.3-2.6-7.2c0-2.9,0.9-5.2,2.7-7.1c1.8-1.9,4-2.8,6.7-2.8c1.7,0,3.2,0.4,4.5,1.1c1.1,0.6,2.3,1.7,3.6,3.2
		c0.3,0.3,0.8,0.1,0.8-0.3v-8c0-0.2-0.1-0.3-0.3-0.4c-2.6-1.4-5.5-2.1-8.4-2.1C129.7,23.6,125.7,25.2,122.4,28.3z"/>
	<path class="st0" d="M150.5,55.5h6.2c0.3,0,0.5-0.2,0.5-0.5v-53c0-0.3-0.2-0.5-0.5-0.5h-6.2c-0.3,0-0.5,0.2-0.5,0.5v53
		C150.1,55.3,150.3,55.5,150.5,55.5z"/>
	<path class="st0" d="M185.7,42.3c0,5.1-2,7.7-6.1,7.7c-4.1,0-6.1-2.6-6.1-7.7V24.9c0-0.3-0.2-0.5-0.5-0.5h-6.2
		c-0.3,0-0.5,0.2-0.5,0.5v17.5c0,2.9,0.3,5,0.9,6.4c0.6,1.6,1.7,3.1,3.2,4.4c2.4,2.1,5.5,3.2,9.2,3.2c3.7,0,6.8-1.1,9.3-3.2
		c1.5-1.3,2.5-2.8,3.1-4.4c0.6-1.8,0.9-4,0.9-6.4V24.9c0-0.3-0.2-0.5-0.5-0.5h-6.2c-0.3,0-0.5,0.2-0.5,0.5V42.3z"/>
	<path class="st0" d="M208.9,13h-6.2c-0.3,0-0.5,0.2-0.5,0.5V24c0,0.3-0.2,0.5-0.5,0.5h-2.1c-0.3,0-0.5,0.2-0.5,0.5v5.8
		c0,0.3,0.2,0.5,0.5,0.5h2.1c0.3,0,0.5,0.2,0.5,0.5V55c0,0.3,0.2,0.5,0.5,0.5h6.2c0.3,0,0.5-0.2,0.5-0.5V31.6c0-0.3,0.2-0.5,0.5-0.5
		h4.7c0.3,0,0.5-0.2,0.5-0.5v-5.8c0-0.3-0.2-0.5-0.5-0.5h-4.7c-0.3,0-0.5-0.2-0.5-0.5V13.5C209.4,13.2,209.2,13,208.9,13z"/>
	<path class="st1" d="M66.5,28c-0.1,0.2-0.2,0.3-0.3,0.4c-0.7,0.5-1.7,1-2.5,1.5l0,0c0,0-4.4,2.7-7.2,7.8c-0.3,0.5,0.5,1,0.8,0.5
		c1.6-2.7,3.9-5.5,6.2-6.5c0.2-0.1,0.4,0,0.5,0.1c0.9,0.8,4,4.3-0.7,9.9c0,0,0,0,0,0c-0.1,0.1-1.6,1.7-3.6,2.8c0,0-3.6,2.2-5.8,6.1
		c-0.2,0.3-0.7,0.3-0.8,0c-1.3-2.5-4.8-10.7-0.3-17.6c0,0,0,0,0,0c0.1-0.3,2.1-3.9,7.8-3.5l0,0c1,0,2.2-0.6,2.3-0.7c0,0,0,0,0,0
		c0.9-0.6,1.9-1.2,2.5-1.6c0,0,0.1,0,0.1-0.1c-2.6-2.3-5.5-3.5-8.7-3.5c-4.2,0-7.7,1.6-10.4,4.7c-2.8,3.1-4.2,7-4.2,11.6
		c0,4.7,1.4,8.7,4.2,11.9c2.8,3.1,6.3,4.7,10.6,4.7c3.3,0,6.2-1.1,8.8-3.4c0.3-0.3,0.8,0,0.8,0.4V55c0,0.3,0.2,0.5,0.5,0.5h6.3
		c0.3,0,0.5-0.2,0.5-0.5v-53c0-0.3-0.2-0.5-0.5-0.5H67c-0.3,0-0.5,0.2-0.5,0.5v25.4"/>
</g>
</svg>
